<svg width="14.142853" height="9.000000" viewBox="0 0 14.1429 9" fill="none" xmlns="http://www.w3.org/2000/svg" xmlns:xlink="http://www.w3.org/1999/xlink">
	<desc>
			Created with Pixso.
	</desc>
	<defs>
		<clipPath id="clip63_2689">
			<rect id="Frame" rx="0.000000" width="13.142858" height="8.000000" transform="translate(14.642853 9.500000) rotate(-179.999985)" fill="white" fill-opacity="0"/>
		</clipPath>
	</defs>
	<rect id="Frame" rx="0.000000" width="13.142858" height="8.000000" transform="translate(14.642853 9.500000) rotate(-179.999985)" fill="#FFFFFF" fill-opacity="0"/>
	<g clip-path="url(#clip63_2689)">
		<path id="Vector" d="M0.8 5.3L11.41 5.3L9.08 7.63C8.75 7.95 8.75 8.43 9.08 8.75C9.4 9.08 9.88 9.08 10.2 8.75L13.9 5.06C14.22 4.74 14.22 4.25 13.9 3.93L10.2 0.24C9.88 -0.09 9.4 -0.09 9.08 0.24C8.75 0.56 8.75 1.04 9.08 1.36L11.41 3.69L0.8 3.69C0.4 3.69 0 4.01 0 4.5C0 4.98 0.4 5.3 0.8 5.3Z" fill="#4089ED" fill-opacity="1.000000" fill-rule="nonzero"/>
	</g>
</svg>
